<svg width="31" height="30" viewBox="0 0 31 30" fill="none" xmlns="http://www.w3.org/2000/svg">
<path d="M21.3125 0C19.3363 0 17.6313 1.31086 16.585 3.29588C18.3288 5.31835 19.375 8.08989 19.375 11.2734C19.375 12.3595 19.2587 13.3333 19.0262 14.3071C19.7625 14.7191 20.4988 15.0187 21.3125 15.0187C24.5287 15.0187 27.125 11.6479 27.125 7.52809C27.125 3.40824 24.5287 0.0374532 21.3125 0.0374532V0ZM9.6875 3.74532C6.47125 3.74532 3.875 7.1161 3.875 11.236C3.875 15.3558 6.47125 18.7266 9.6875 18.7266C12.9037 18.7266 15.5 15.3558 15.5 11.236C15.5 7.1161 12.9037 3.74532 9.6875 3.74532ZM28.0938 15.5805C26.4275 17.4906 24.1412 18.6517 21.545 18.7266C22.5912 20.1498 23.25 21.8727 23.25 23.7453V26.2172H31V20C31 18.0524 29.7987 16.367 28.0938 15.5431V15.5805ZM2.90625 19.3258C1.20125 20.1498 0 21.8352 0 23.7828V30H19.375V23.7828C19.375 21.8352 18.1737 20.1498 16.4688 19.3258C14.725 21.3109 12.3612 22.4719 9.6875 22.4719C7.01375 22.4719 4.65 21.2734 2.90625 19.3258Z" fill="black"/>
</svg>
