<svg width="32" height="33" viewBox="0 0 32 33" fill="none" xmlns="http://www.w3.org/2000/svg">
<path d="M16.9497 2.88131C16.6478 1.96538 15.3522 1.96538 15.0503 2.88131L12.2264 11.4483C12.0913 11.8582 11.7084 12.1352 11.2767 12.1352H2.826C1.88346 12.1352 1.46428 13.3198 2.19704 13.9126L9.46298 19.7909C9.78619 20.0524 9.9139 20.4865 9.78376 20.8814L7.06423 29.1319C6.75192 30.0794 7.86734 30.8498 8.64292 30.2224L15.371 24.7792C15.7378 24.4825 16.2622 24.4825 16.629 24.7792L23.3571 30.2224C24.1327 30.8498 25.2481 30.0794 24.9358 29.1319L22.2162 20.8814C22.0861 20.4865 22.2138 20.0524 22.537 19.7909L29.803 13.9126C30.5357 13.3198 30.1165 12.1352 29.174 12.1352H20.7233C20.2916 12.1352 19.9087 11.8582 19.7736 11.4483L16.9497 2.88131Z" fill="#2E2E30"/>
</svg>
